<svg width="50" height="50" viewBox="0 0 50 50" fill="none" xmlns="http://www.w3.org/2000/svg">
<g clip-path="url(#clip0_6_70)">
<path d="M25 0C11.1937 0 0 11.1937 0 25C0 38.8063 11.1937 50 25 50C38.8063 50 50 38.8063 50 25C50 11.1937 38.8063 0 25 0ZM30.45 24.9984H26.9516V37.6922H21.7063V25H19.0859V20.625H21.7063V17.9984C21.7063 14.4297 23.1859 12.3078 27.3891 12.3078H30.8891V16.6828H28.7016C27.0656 16.6828 26.9563 17.2953 26.9563 18.4344L26.9516 20.625H30.9141L30.45 24.9984Z" fill="#252525"/>
</g>
<defs>
<clipPath id="clip0_6_70">
<rect width="50" height="50" fill="white"/>
</clipPath>
</defs>
</svg>
