<svg width="50" height="50" viewBox="0 0 50 50" fill="none" xmlns="http://www.w3.org/2000/svg">
<g clip-path="url(#clip0_6_66)">
<path fill-rule="evenodd" clip-rule="evenodd" d="M25 0C38.7979 0 50 11.2021 50 25C50 38.7979 38.7979 50 25 50C11.2021 50 0 38.7979 0 25C0 11.2021 11.2021 0 25 0ZM20.5966 38.2967C31.6594 38.2967 37.7083 29.1297 37.7083 21.1851C37.7083 20.9231 37.7083 20.6612 37.6958 20.4117C38.8682 19.5637 39.8909 18.5035 40.7016 17.2937C39.629 17.7677 38.469 18.092 37.2468 18.2416C38.494 17.4933 39.4419 16.3209 39.8909 14.9116C38.731 15.5976 37.4464 16.0964 36.0744 16.3708C34.9769 15.1984 33.4179 14.4751 31.6843 14.4751C28.3667 14.4751 25.6728 17.169 25.6728 20.4866C25.6728 20.9605 25.7227 21.422 25.8349 21.8585C20.8336 21.6091 16.406 19.2145 13.4377 15.5726C12.9263 16.4581 12.627 17.4933 12.627 18.5908C12.627 20.6736 13.6871 22.5195 15.3085 23.5921C14.3231 23.5672 13.4002 23.2928 12.5896 22.8438V22.9187C12.5896 25.8371 14.6599 28.2566 17.4162 28.818C16.9174 28.9551 16.3811 29.03 15.8323 29.03C15.4456 29.03 15.0715 28.9926 14.6974 28.9177C15.4581 31.3123 17.6781 33.046 20.3098 33.0958C18.2519 34.7048 15.6577 35.6651 12.839 35.6651C12.3525 35.6651 11.8786 35.6401 11.4047 35.5778C14.0363 37.2989 17.2042 38.2967 20.5966 38.2967Z" fill="#252525"/>
</g>
<defs>
<clipPath id="clip0_6_66">
<rect width="50" height="50" fill="white"/>
</clipPath>
</defs>
</svg>
